# xmcd
#
# Track frame offsets:
#	150
#	13670
#	25730
#	37363
#	49007
#	62274
#	76228
#	87376
#	98132
#	112599
#	122913
#	133179
#	147532
#	158648
#	170991
#	182334
#	193821
#	204953
#	218116
#	229831
#	240340
#	252779
#	266897
#	279719
#	293648
#
# Disc length: 4083
#
# Revision: 1
# Processed by: cddbd v1.5.1PL0 Copyright (c) Steve Scherf et al.
# Submitted via: audiograbber 1.81.03
# Normalized: r0:DSETVAR1
#
DISCID=650ff119
DTITLE=Various Artist - Roots of Doo Wop cd2
DYEAR=2002
DGENRE=
TTITLE0=Orioles - It's To Soon to Know
TTITLE1=Five Red Caps - Blueberry Hill
TTITLE2=Big Three Trio - Appetite Blues
TTITLE3=Chris Powell and The Five Blue Flames - Hot Dog
TTITLE4=Blenders - Gone
TTITLE5=Robins - If It's So Baby
TTITLE6=Orioles - I'd Rather Have You Under the Moon
TTITLE7=Cats and The Fiddle - Wine Drinker
TTITLE8=Robins - If I Didn't Love You So
TTITLE9=Ravens - Gotta Find My Baby
TTITLE10=Drifters - And  I Shook
TTITLE11=Cardinals - Shouldn't I Know
TTITLE12=Royales - Too Much of a Little Bit
TTITLE13=Heartbreakers - Heartbreaker
TTITLE14=Dominoes - Sixty Minute Man
TTITLE15=Clovers - Fool Fool Fool
TTITLE16=Sultans - Lemon Squeezing Daddy
TTITLE17=Swallows - Will You Be Mine
TTITLE18=Dusty Brooks - Chili Dog
TTITLE19=Dreamers - Can't Get You off my Mind
TTITLE20=Royales - Give Me One More Chance
TTITLE21=Cabineers - Baby Where'd You Go
TTITLE22=Swallows - Roll Roll Pretty Baby
TTITLE23=Clovers - Don't You Know I Love You
TTITLE24=Four Flames - Tabarin
EXTD=
EXTT0=
EXTT1=
EXTT2=
EXTT3=
EXTT4=
EXTT5=
EXTT6=
EXTT7=
EXTT8=
EXTT9=
EXTT10=
EXTT11=
EXTT12=
EXTT13=
EXTT14=
EXTT15=
EXTT16=
EXTT17=
EXTT18=
EXTT19=
EXTT20=
EXTT21=
EXTT22=
EXTT23=
EXTT24=
PLAYORDER=
